<svg width="25" height="24" viewBox="0 0 25 24" fill="none" xmlns="http://www.w3.org/2000/svg">
<path d="M15.8 21V13C15.8 12.7348 15.6947 12.4804 15.5072 12.2929C15.3196 12.1054 15.0653 12 14.8 12H10.8C10.5348 12 10.2805 12.1054 10.0929 12.2929C9.90541 12.4804 9.80005 12.7348 9.80005 13V21" stroke="black" stroke-width="1.5" stroke-linecap="round" stroke-linejoin="round"/>
<path d="M3.80005 10C3.79998 9.70907 3.86338 9.42162 3.98584 9.15771C4.10829 8.89381 4.28685 8.65979 4.50905 8.472L11.509 2.473C11.87 2.16791 12.3274 2.00052 12.8 2.00052C13.2727 2.00052 13.7301 2.16791 14.091 2.473L21.091 8.472C21.3133 8.65979 21.4918 8.89381 21.6143 9.15771C21.7367 9.42162 21.8001 9.70907 21.8 10V19C21.8 19.5304 21.5893 20.0391 21.2143 20.4142C20.8392 20.7893 20.3305 21 19.8 21H5.80005C5.26962 21 4.76091 20.7893 4.38584 20.4142C4.01076 20.0391 3.80005 19.5304 3.80005 19V10Z" stroke="black" stroke-width="1.5" stroke-linecap="round" stroke-linejoin="round"/>
</svg>
