<svg width="25" height="24" viewBox="0 0 25 24" fill="none" xmlns="http://www.w3.org/2000/svg">
<path d="M2.19995 21C2.20007 19.741 2.49734 18.4997 3.06761 17.3772C3.63787 16.2548 4.46502 15.2827 5.48177 14.5402C6.49853 13.7976 7.6762 13.3056 8.91899 13.104C10.1618 12.9024 11.4346 12.9969 12.634 13.38" stroke="black" stroke-width="1.5" stroke-linecap="round" stroke-linejoin="round"/>
<path d="M10.2 13C12.9614 13 15.2 10.7614 15.2 8C15.2 5.23858 12.9614 3 10.2 3C7.43853 3 5.19995 5.23858 5.19995 8C5.19995 10.7614 7.43853 13 10.2 13Z" stroke="black" stroke-width="1.5" stroke-linecap="round" stroke-linejoin="round"/>
<path d="M18.2 21C19.8568 21 21.2 19.6569 21.2 18C21.2 16.3431 19.8568 15 18.2 15C16.5431 15 15.2 16.3431 15.2 18C15.2 19.6569 16.5431 21 18.2 21Z" stroke="black" stroke-width="1.5" stroke-linecap="round" stroke-linejoin="round"/>
<path d="M19.7 14.3L19.3 15.2" stroke="black" stroke-width="1.5" stroke-linecap="round" stroke-linejoin="round"/>
<path d="M17.1 20.8L16.7 21.7" stroke="black" stroke-width="1.5" stroke-linecap="round" stroke-linejoin="round"/>
<path d="M21.9 19.5L21 19.1" stroke="black" stroke-width="1.5" stroke-linecap="round" stroke-linejoin="round"/>
<path d="M15.4 16.9L14.5 16.5" stroke="black" stroke-width="1.5" stroke-linecap="round" stroke-linejoin="round"/>
<path d="M21.9 16.5L21 16.9" stroke="black" stroke-width="1.5" stroke-linecap="round" stroke-linejoin="round"/>
<path d="M15.4 19.1L14.5 19.5" stroke="black" stroke-width="1.5" stroke-linecap="round" stroke-linejoin="round"/>
<path d="M19.7 21.7L19.3 20.8" stroke="black" stroke-width="1.5" stroke-linecap="round" stroke-linejoin="round"/>
<path d="M17.1 15.2L16.7 14.3" stroke="black" stroke-width="1.5" stroke-linecap="round" stroke-linejoin="round"/>
</svg>
