<svg width="40" height="40" viewBox="0 0 40 40" fill="none" xmlns="http://www.w3.org/2000/svg">
<rect width="40" height="40" fill="#EEEEEE"/>
<g id="&#208;&#147;&#208;&#187;&#208;&#176;&#208;&#178;&#208;&#189;&#208;&#176;&#209;&#143; &#209;&#129;&#209;&#130;&#209;&#128;&#208;&#176;&#208;&#189;&#208;&#184;&#209;&#134;&#208;&#176;">
<rect width="360" height="1166" transform="translate(-36 -431)" fill="white"/>
<g id="Frame 21" filter="url(#filter0_d_0_1)">
<rect x="-20" y="-36" width="270" height="106" rx="16" fill="white"/>
<rect x="-19.5" y="-35.5" width="269" height="105" rx="15.5" stroke="#F5F2FF"/>
<g id="Frame 180">
<rect x="-10" y="-10" width="60" height="60" rx="30" fill="#F5F2FF"/>
<g id="Frame">
<path id="Vector" d="M33.3335 8.33334H6.66683C4.82588 8.33334 3.3335 9.82572 3.3335 11.6667V28.3333C3.3335 30.1743 4.82588 31.6667 6.66683 31.6667H33.3335C35.1744 31.6667 36.6668 30.1743 36.6668 28.3333V11.6667C36.6668 9.82572 35.1744 8.33334 33.3335 8.33334Z" stroke="#7E49FF" stroke-width="1.5" stroke-linecap="round" stroke-linejoin="round"/>
<path id="Vector_2" d="M3.3335 16.6667H36.6668" stroke="#7E49FF" stroke-width="1.5" stroke-linecap="round" stroke-linejoin="round"/>
</g>
</g>
</g>
</g>
<defs>
<filter id="filter0_d_0_1" x="-28" y="-36" width="286" height="122" filterUnits="userSpaceOnUse" color-interpolation-filters="sRGB">
<feFlood flood-opacity="0" result="BackgroundImageFix"/>
<feColorMatrix in="SourceAlpha" type="matrix" values="0 0 0 0 0 0 0 0 0 0 0 0 0 0 0 0 0 0 127 0" result="hardAlpha"/>
<feOffset dy="8"/>
<feGaussianBlur stdDeviation="4"/>
<feComposite in2="hardAlpha" operator="out"/>
<feColorMatrix type="matrix" values="0 0 0 0 0.945098 0 0 0 0 0.960784 0 0 0 0 0.976471 0 0 0 1 0"/>
<feBlend mode="normal" in2="BackgroundImageFix" result="effect1_dropShadow_0_1"/>
<feBlend mode="normal" in="SourceGraphic" in2="effect1_dropShadow_0_1" result="shape"/>
</filter>
</defs>
</svg>
