<svg width="16" height="16" viewBox="0 0 16 16" fill="none" xmlns="http://www.w3.org/2000/svg">
<g clip-path="url(#clip0_50_4437)">
<path d="M7.15527 3.384C8.7082 3.19894 10.279 3.52721 11.6279 4.3187C12.9767 5.11019 14.0294 6.32138 14.6253 7.76733C14.6808 7.91701 14.6808 8.08166 14.6253 8.23133C14.3803 8.82533 14.0565 9.38367 13.6626 9.89133" stroke="#EF4444" stroke-linecap="round" stroke-linejoin="round"/>
<path d="M9.38942 9.43867C9.01222 9.80299 8.50702 10.0046 7.98262 10C7.45823 9.99546 6.9566 9.78513 6.58579 9.41431C6.21497 9.04349 6.00463 8.54187 6.00008 8.01747C5.99552 7.49308 6.19711 6.98788 6.56142 6.61067" stroke="#EF4444" stroke-linecap="round" stroke-linejoin="round"/>
<path d="M11.6527 11.666C10.7683 12.1899 9.78165 12.5174 8.75959 12.6263C7.73752 12.7352 6.70398 12.623 5.7291 12.2973C4.75422 11.9715 3.86081 11.4399 3.10949 10.7385C2.35816 10.0371 1.76651 9.18224 1.37468 8.23201C1.31912 8.08233 1.31912 7.91768 1.37468 7.76801C1.96577 6.33458 3.00579 5.1315 4.33868 4.33934" stroke="#EF4444" stroke-linecap="round" stroke-linejoin="round"/>
<path d="M1.3335 1.33333L14.6668 14.6667" stroke="#EF4444" stroke-linecap="round" stroke-linejoin="round"/>
</g>
<defs>
<clipPath id="clip0_50_4437">
<rect width="16" height="16" fill="white"/>
</clipPath>
</defs>
</svg>
