<svg width="37" height="32" viewBox="0 0 37 32" fill="none" xmlns="http://www.w3.org/2000/svg">
<path d="M9.9573 32H5.04821L5.04812 28.347C4.17539 28.347 1.77539 27.7625 0.684482 27.4703V22.6484C1.41175 22.9406 3.13903 23.3789 4.63912 23.5251C6.45106 23.7016 9.9573 24.4018 10.23 21.4794C10.5421 18.1354 6.41175 17.8389 4.63912 17.242C3.04821 16.7062 -0.106333 14.6118 0.00275783 10.5205C0.111849 6.42921 3.41185 4.33489 5.04821 3.79915V0H10.23V3.79915C11.0118 3.87578 12.6107 4.2858 13.3664 4.57867V9.78608C13.3664 9.78623 13.3664 9.78629 13.3664 9.78629V9.78608C13.3657 9.78155 13.3253 9.69646 11.4573 8.76717C9.43141 7.81696 5.04821 7.55866 5.04821 10.8128C5.04821 14.067 9.54821 13.5891 11.5937 14.758C13.8947 16.073 15 18.4109 15 21.4794C15 24.5479 12.9545 27.4703 9.9573 28.2009V32Z" fill="url(#paint0_linear_1975_4597)"/>
<path d="M22.3239 30H17.3944H17.1127V13.4228C17.1127 11.173 15.7042 10.3667 15 10.2681V5.00974C17.1127 5.00981 19.507 7.35504 19.7887 8.83435C20.8028 5.51888 24.5305 4.91108 26.2676 5.00974C32.2394 4.89133 35 9.72316 35 14.7548V30H29.7887V14.7548C29.7887 12.9786 29.1408 9.87117 25.9859 9.87117C22.831 9.87117 22.3239 13.176 22.3239 14.7548V30Z" fill="url(#paint1_linear_1975_4597)"/>
<defs>
<linearGradient id="paint0_linear_1975_4597" x1="7.5" y1="-4.98661" x2="7.5" y2="32" gradientUnits="userSpaceOnUse">
<stop stop-color="#ECE8FF"/>
<stop offset="1" stop-color="#681EE3"/>
</linearGradient>
<linearGradient id="paint1_linear_1975_4597" x1="25" y1="1.10421" x2="25" y2="30" gradientUnits="userSpaceOnUse">
<stop stop-color="#ECE8FF"/>
<stop offset="1" stop-color="#681EE3"/>
</linearGradient>
</defs>
</svg>
