<svg width="16" height="16" viewBox="0 0 16 16" fill="none" xmlns="http://www.w3.org/2000/svg">
<g clip-path="url(#clip0_139_17691)">
<path d="M7.15527 3.38401C8.7082 3.19895 10.279 3.52723 11.6279 4.31871C12.9767 5.1102 14.0294 6.3214 14.6253 7.76735C14.6808 7.91703 14.6808 8.08167 14.6253 8.23135C14.3803 8.82535 14.0565 9.38368 13.6626 9.89135" stroke="black" stroke-linecap="round" stroke-linejoin="round"/>
<path d="M9.38942 9.43866C9.01222 9.80297 8.50702 10.0046 7.98262 10C7.45823 9.99545 6.9566 9.78511 6.58579 9.41429C6.21497 9.04348 6.00463 8.54185 6.00008 8.01746C5.99552 7.49307 6.19711 6.98786 6.56142 6.61066" stroke="black" stroke-linecap="round" stroke-linejoin="round"/>
<path d="M11.6527 11.666C10.7683 12.1898 9.78165 12.5173 8.75959 12.6263C7.73752 12.7352 6.70398 12.623 5.7291 12.2972C4.75422 11.9715 3.86081 11.4399 3.10949 10.7385C2.35816 10.0371 1.76651 9.18223 1.37468 8.23199C1.31912 8.08231 1.31912 7.91767 1.37468 7.76799C1.96577 6.33456 3.00579 5.13149 4.33868 4.33932" stroke="black" stroke-linecap="round" stroke-linejoin="round"/>
<path d="M1.3335 1.33334L14.6668 14.6667" stroke="black" stroke-linecap="round" stroke-linejoin="round"/>
</g>
<defs>
<clipPath id="clip0_139_17691">
<rect width="16" height="16" fill="white"/>
</clipPath>
</defs>
</svg>
