<svg width="16" height="16" viewBox="0 0 16 16" fill="none" xmlns="http://www.w3.org/2000/svg">
<g clip-path="url(#clip0_379_2734)">
<path d="M14.1161 4.54133C14.4686 4.18895 14.6666 3.71098 14.6667 3.21257C14.6668 2.71416 14.4688 2.23614 14.1165 1.88366C13.7641 1.53119 13.2861 1.33314 12.7877 1.33308C12.2893 1.33301 11.8113 1.53095 11.4588 1.88333L2.56145 10.7827C2.40667 10.937 2.29219 11.127 2.22812 11.336L1.34745 14.2373C1.33022 14.295 1.32892 14.3562 1.34369 14.4146C1.35845 14.4729 1.38873 14.5262 1.43132 14.5687C1.4739 14.6112 1.5272 14.6414 1.58556 14.656C1.64392 14.6707 1.70516 14.6693 1.76279 14.652L4.66479 13.772C4.87357 13.7085 5.06357 13.5947 5.21812 13.4407L14.1161 4.54133Z" stroke="black" stroke-linecap="round" stroke-linejoin="round"/>
<path d="M10 3.33334L12.6667 6" stroke="black" stroke-linecap="round" stroke-linejoin="round"/>
</g>
<defs>
<clipPath id="clip0_379_2734">
<rect width="16" height="16" fill="white"/>
</clipPath>
</defs>
</svg>
