<svg width="25" height="24" viewBox="0 0 25 24" fill="none" xmlns="http://www.w3.org/2000/svg">
<path d="M18.6001 21C18.6001 18.8783 17.7572 16.8434 16.257 15.3431C14.7567 13.8429 12.7218 13 10.6001 13C8.47837 13 6.44353 13.8429 4.94324 15.3431C3.44295 16.8434 2.6001 18.8783 2.6001 21" stroke="black" stroke-width="1.5" stroke-linecap="round" stroke-linejoin="round"/>
<path d="M10.6001 13C13.3615 13 15.6001 10.7614 15.6001 8C15.6001 5.23858 13.3615 3 10.6001 3C7.83867 3 5.6001 5.23858 5.6001 8C5.6001 10.7614 7.83867 13 10.6001 13Z" stroke="black" stroke-width="1.5" stroke-linecap="round" stroke-linejoin="round"/>
<path d="M22.6001 20C22.6001 16.63 20.6001 13.5 18.6001 12C19.2576 11.5068 19.7833 10.8591 20.1307 10.1143C20.4782 9.36946 20.6367 8.55048 20.5922 7.72981C20.5477 6.90914 20.3016 6.1121 19.8756 5.40921C19.4497 4.70633 18.857 4.11927 18.1501 3.70001" stroke="black" stroke-width="1.5" stroke-linecap="round" stroke-linejoin="round"/>
</svg>
