<svg width="25" height="24" viewBox="0 0 25 24" fill="none" xmlns="http://www.w3.org/2000/svg">
<path d="M20.4001 7H17.4001C16.8697 7 16.361 6.78929 15.9859 6.41421C15.6109 6.03914 15.4001 5.53043 15.4001 5V2" stroke="black" stroke-width="1.5" stroke-linecap="round" stroke-linejoin="round"/>
<path d="M9.40015 18C8.86971 18 8.36101 17.7893 7.98593 17.4142C7.61086 17.0391 7.40015 16.5304 7.40015 16V4C7.40015 3.46957 7.61086 2.96086 7.98593 2.58579C8.36101 2.21071 8.86971 2 9.40015 2H16.4001L20.4001 6V16C20.4001 16.5304 20.1894 17.0391 19.8144 17.4142C19.4393 17.7893 18.9306 18 18.4001 18H9.40015Z" stroke="black" stroke-width="1.5" stroke-linecap="round" stroke-linejoin="round"/>
<path d="M3.40015 7.60001V20.4C3.40015 20.8244 3.56872 21.2313 3.86878 21.5314C4.16883 21.8314 4.5758 22 5.00015 22H14.8001" stroke="black" stroke-width="1.5" stroke-linecap="round" stroke-linejoin="round"/>
</svg>
